<svg xmlns="http://www.w3.org/2000/svg" xmlns:xlink="http://www.w3.org/1999/xlink" width="40" zoomAndPan="magnify" viewBox="0 0 30 30.000001" height="40" preserveAspectRatio="xMidYMid meet" version="1.0"><defs><clipPath id="023baae8fc"><path d="M 4.15625 3.671875 L 25.929688 3.671875 L 25.929688 25.445312 L 4.15625 25.445312 Z M 4.15625 3.671875 " clip-rule="nonzero"/></clipPath></defs><g clip-path="url(#023baae8fc)"><path fill="#e2318b" d="M 23.6875 20.71875 C 23.6875 22.085938 22.566406 23.203125 21.203125 23.203125 L 8.792969 23.203125 C 7.425781 23.203125 6.308594 22.085938 6.308594 20.71875 L 6.308594 8.308594 C 6.308594 6.941406 7.425781 5.824219 8.792969 5.824219 L 21.203125 5.824219 C 22.566406 5.824219 23.6875 6.941406 23.6875 8.308594 Z M 21.203125 3.671875 L 8.792969 3.671875 C 6.234375 3.671875 4.15625 5.75 4.15625 8.308594 L 4.15625 20.71875 C 4.15625 23.273438 6.234375 25.355469 8.792969 25.355469 L 21.203125 25.355469 C 23.757812 25.355469 25.839844 23.273438 25.839844 20.71875 L 25.839844 8.308594 C 25.839844 5.75 23.757812 3.671875 21.203125 3.671875 " fill-opacity="1" fill-rule="nonzero"/></g><path fill="#e2318b" d="M 14.996094 18.179688 C 12.972656 18.179688 11.332031 16.539062 11.332031 14.511719 C 11.332031 12.488281 12.972656 10.847656 14.996094 10.847656 C 17.023438 10.847656 18.664062 12.488281 18.664062 14.511719 C 18.664062 16.539062 17.023438 18.179688 14.996094 18.179688 Z M 14.996094 8.757812 C 11.824219 8.757812 9.238281 11.339844 9.238281 14.511719 C 9.238281 17.6875 11.824219 20.269531 14.996094 20.269531 C 18.171875 20.269531 20.753906 17.6875 20.753906 14.511719 C 20.753906 11.339844 18.171875 8.757812 14.996094 8.757812 " fill-opacity="1" fill-rule="nonzero"/><path fill="#e2318b" d="M 21.53125 7.695312 L 20.261719 7.695312 C 20.019531 7.695312 19.820312 7.894531 19.820312 8.136719 L 19.820312 9.40625 C 19.820312 9.648438 20.019531 9.847656 20.261719 9.847656 L 21.53125 9.847656 C 21.773438 9.847656 21.972656 9.648438 21.972656 9.40625 L 21.972656 8.136719 C 21.972656 7.894531 21.773438 7.695312 21.53125 7.695312 " fill-opacity="1" fill-rule="nonzero"/></svg>